<?xml version="1.0" encoding="UTF-8" standalone="no"?><!DOCTYPE svg PUBLIC "-//W3C//DTD SVG 1.1//EN" "http://www.w3.org/Graphics/SVG/1.1/DTD/svg11.dtd"><svg width="100%" height="100%" viewBox="0 0 259 106" version="1.1" xmlns="http://www.w3.org/2000/svg" xmlns:xlink="http://www.w3.org/1999/xlink" xml:space="preserve" xmlns:serif="http://www.serif.com/" style="fill-rule:evenodd;clip-rule:evenodd;stroke-linejoin:round;stroke-miterlimit:2;"><g id="MPTG"><g><g><path d="M118,12.2l3.8,-6.4l-8.1,-5.8l4.3,12.2Z" style="fill:#fff;fill-rule:nonzero;"/><path d="M142.9,15.1c18.8,1.2 35.5,4.7 48.4,9.7c-10.2,-6.7 -27.2,-11.6 -47.3,-13.2l-1.1,3.5Z" style="fill:#fff;fill-rule:nonzero;"/><path d="M67.5,24.8c13,-5 29.8,-8.6 48.6,-9.7l-1.2,-3.5c-20,1.6 -37.1,6.5 -47.4,13.2" style="fill:#fff;fill-rule:nonzero;"/><path d="M117.7,11.4l1.2,3.5c3.4,-0.2 6.9,-0.2 10.4,-0.2c3.6,0 7.2,0.1 10.8,0.3l1.1,-3.5c-3.9,-0.2 -7.8,-0.4 -11.9,-0.4c-3.9,-0.1 -7.8,0.1 -11.6,0.3" style="fill:#fff;fill-rule:nonzero;"/><path d="M137,5.9l3.9,6.5l4.3,-12.3l-8.2,5.8Z" style="fill:#fff;fill-rule:nonzero;"/><path d="M137,5.9l3.9,6.5l4.3,-12.3l-8.2,5.8Z" style="fill:#fff;fill-rule:nonzero;"/><path d="M129.419,0.058l-2.407,2.401l2.401,2.407l2.407,-2.402l-2.401,-2.406Z" style="fill:#fff;"/><path d="M126.02,3.494l-2.405,2.403l2.402,2.405l2.406,-2.403l-2.403,-2.405Z" style="fill:#fff;"/><path d="M126.02,3.494l-2.405,2.403l2.402,2.405l2.406,-2.403l-2.403,-2.405Z" style="fill:#fff;"/><path d="M130.4,5.9l2.4,2.4l2.4,-2.4l-2.4,-2.4l-2.4,2.4Z" style="fill:#fff;fill-rule:nonzero;"/><path d="M130.4,5.9l2.4,2.4l2.4,-2.4l-2.4,-2.4l-2.4,2.4Z" style="fill:#fff;fill-rule:nonzero;"/></g><g><path d="M69.8,64.8l0,2.1l-5.1,0l-0,12.7l-2.1,0l0,-12.7l-5.2,0l0,-2.1l12.4,0Z" style="fill:#fff;fill-rule:nonzero;"/><path d="M74.1,64.8l2.1,0l-0,6l8.7,0l0,-6l2.1,0l0,14.8l-2.1,0l0,-6.7l-8.7,0l-0,6.7l-2.1,0l-0,-14.8Z" style="fill:#fff;fill-rule:nonzero;"/><path d="M104.7,64.8l-0,2.1l-9.9,0l0,3.9l5,0l0,2.1l-5,0l0,4.5l10.3,0l0,2.2l-12.5,0l0,-14.8l12.1,0Z" style="fill:#fff;fill-rule:nonzero;"/><path d="M123.7,71.5l6.8,0l0,3.9c0,2.7 -2.9,4.4 -6.6,4.4c-3.9,0 -8.1,-2.7 -8.1,-7.7c0,-4.2 3.4,-7.7 8.1,-7.7c3.5,0 5.4,1.9 6.2,2.7l-1.5,1.5c-0.7,-0.7 -1.9,-2.1 -4.6,-2.1c-3.9,0 -6.2,2.6 -6.2,5.6c0,2.9 2.3,5.5 6,5.5c2.6,0 4.4,-1.2 4.4,-2.4l0,-1.6l-4.6,0l0.1,-2.1Z" style="fill:#fff;fill-rule:nonzero;"/><path d="M143.6,64.8c2.4,0 4.6,1.2 4.6,4.2c0,3.2 -2.1,4.2 -3.4,4.3l3.1,6.2l-2.5,0l-2.9,-6.2l-5.5,0l0,6.2l-2.1,0l0,-14.8l8.7,0.1Zm-6.6,2.1l0,4.4l6.6,0c1.6,0 2.5,-0.8 2.5,-2.3c0,-1.7 -1.3,-2.1 -2.5,-2.1l-6.6,0Z" style="fill:#fff;fill-rule:nonzero;"/><path d="M165.5,79.6l-2.4,-0l-2.1,-4.9l-6.6,-0l-2.2,4.9l-2.3,-0l6.7,-14.8l2.4,-0l6.5,14.8Zm-7.8,-12.2l-2.3,5.1l4.6,0l-2.3,-5.1Z" style="fill:#fff;fill-rule:nonzero;"/><path d="M171,64.8l8.8,11.2l0,-11.2l2.1,0l0,14.8l-2.1,0l-8.8,-11.3l0,11.3l-2.2,0l0,-14.8l2.2,0Z" style="fill:#fff;fill-rule:nonzero;"/><path d="M194.2,64.8c5.2,0 7.2,4 7.2,7.3c0,4.1 -3,7.5 -7.2,7.5l-6.8,0l0,-14.8l6.8,0Zm-4.7,2.1l-0,10.5l4.7,0c3.6,0 5.1,-3.1 5.1,-5.3c-0,-3.1 -2.1,-5.2 -5.1,-5.2l-4.7,0Z" style="fill:#fff;fill-rule:nonzero;"/></g><g><g><path d="M2.9,44.2l-0.1,0l-0,13.8l-2.8,0l0,-19.7l2.8,0l6.7,12.3l6.7,-12.3l2.8,0l0,19.7l-2.8,0l-0,-13.8l-6.7,12.1l-6.6,-12.1Z" style="fill:#fff;fill-rule:nonzero;"/><path d="M26.6,48.2c0,-6.2 4.9,-10.2 10.5,-10.2c5.6,0 10.5,4.1 10.5,10.2c0,6.2 -4.9,10.2 -10.5,10.2c-5.6,0 -10.5,-4.1 -10.5,-10.2m18.2,0c0,-4.1 -3.2,-7.4 -7.7,-7.4c-4.5,-0 -7.7,3.3 -7.7,7.4c0,4.1 3.2,7.4 7.7,7.4c4.4,-0 7.7,-3.4 7.7,-7.4" style="fill:#fff;fill-rule:nonzero;"/><path d="M53.7,48.2c-0,-6.2 4.9,-10.2 10.5,-10.2c5.6,0 10.5,4.1 10.5,10.2c-0,6.2 -4.9,10.2 -10.5,10.2c-5.6,0 -10.5,-4.1 -10.5,-10.2m18.2,0c0,-4.1 -3.2,-7.4 -7.7,-7.4c-4.5,-0 -7.7,3.3 -7.7,7.4c-0,4.1 3.2,7.4 7.7,7.4c4.4,-0 7.7,-3.4 7.7,-7.4" style="fill:#fff;fill-rule:nonzero;"/><path d="M85,38.3l11.6,15l0.1,0l0,-15l2.8,0l0,19.7l-2.8,0l-11.7,-14.9l0,14.9l-2.8,0l0,-19.7l2.8,0Z" style="fill:#fff;fill-rule:nonzero;"/><path d="M130.3,38.3c3,0 5.7,1.8 5.7,5.4c0,4.2 -2.7,5.8 -5.7,5.8l-8.5,0l0,8.4l-2.8,0l-0,-19.6l11.3,0Zm-8.5,2.9l0,5.6l8.5,0c2.6,0 2.9,-1.7 2.9,-2.9c0,-1.5 -1,-2.7 -2.9,-2.7l-8.5,-0Z" style="fill:#fff;fill-rule:nonzero;"/><path d="M159.9,58l-3.2,0l-2.8,-6.5l-8.8,0l-2.9,6.5l-3.1,0l8.9,-19.6l3.1,0l8.8,19.6Zm-10.4,-16.1l-3.1,6.8l6.2,0l-3.1,-6.8Z" style="fill:#fff;fill-rule:nonzero;"/><path d="M165.4,38.3l2.9,0l0,16.9l11.9,0l0,2.8l-14.8,0l0,-19.7Z" style="fill:#fff;fill-rule:nonzero;"/><path d="M202.9,58l-3.2,0l-2.8,-6.5l-8.8,0l-2.9,6.5l-3.1,0l8.9,-19.6l3.1,0l8.8,19.6Zm-10.3,-16.1l-3.1,6.8l6.2,0l-3.1,-6.8Z" style="fill:#fff;fill-rule:nonzero;"/><path d="M226.7,54.5c-1.9,2 -4.2,3.9 -9.8,3.9c-5.3,0 -10.3,-4.1 -10.3,-10.1c0,-5.8 4.5,-10.4 10.3,-10.4c5.4,0 8.6,3.1 9.6,4l-2.1,1.8c-0.9,-0.7 -3.4,-3 -7.4,-3c-3.7,0 -7.5,2.7 -7.5,7.6c0,3.5 2.8,7.2 8.2,7.2c4.2,0 6.4,-2.1 7.2,-3.1l1.8,2.1Z" style="fill:#fff;fill-rule:nonzero;"/><path d="M249,38.3l0,2.9l-13.2,0l-0,5.1l6.7,0l0,2.9l-6.7,0l-0,6l13.7,0l0,2.8l-16.5,0l0,-19.7l16,0Z" style="fill:#fff;fill-rule:nonzero;"/></g><path d="M255.6,44.8c-1.8,0 -3.2,-1.4 -3.2,-3.2c0,-1.8 1.4,-3.2 3.2,-3.2c1.8,0 3.2,1.4 3.2,3.2c-0,1.8 -1.4,3.2 -3.2,3.2m-0,-6c-1.5,0 -2.8,1.2 -2.8,2.8c-0,1.6 1.2,2.8 2.8,2.8c1.5,0 2.8,-1.2 2.8,-2.8c-0,-1.6 -1.3,-2.8 -2.8,-2.8m1.4,2.8c-0.2,0.1 -0.3,0.2 -0.5,0.2l0.9,1.4l-0.5,0l-0.9,-1.4l-1.4,0l0,1.4l-0.5,0l0,-3.4l2.1,0c0.3,0 0.5,0 0.7,0.1c0.3,0.2 0.5,0.6 0.5,0.9c0,0.3 -0.1,0.6 -0.4,0.8m-0.3,-1.3c-0.1,-0.1 -0.2,-0.1 -0.5,-0.1l-1.5,0l0,1.1l1.6,0c0.3,0 0.4,0 0.5,-0.1c0.1,-0.1 0.2,-0.3 0.2,-0.5c0,-0.2 -0.1,-0.3 -0.3,-0.4" style="fill:#fff;fill-rule:nonzero;"/></g><g><path d="M101.6,105.4c-0.8,0 -1.4,-0.1 -2.1,-0.4c-0.6,-0.3 -1.2,-0.6 -1.7,-1.1c-0.5,-0.5 -0.8,-1 -1.1,-1.7c-0.3,-0.6 -0.4,-1.3 -0.4,-2.1c0,-0.7 0.1,-1.4 0.4,-2.1c0.3,-0.6 0.6,-1.2 1.1,-1.7c0.5,-0.5 1,-0.9 1.7,-1.1c0.7,-0.2 1.4,-0.4 2.2,-0.4c0.5,0 0.9,0 1.3,0.1c0.4,0.1 0.8,0.2 1.1,0.3c0.3,0.1 0.6,0.3 0.9,0.5c0.3,0.2 0.5,0.4 0.8,0.6l-1.2,1.3c-0.4,-0.4 -0.8,-0.7 -1.3,-0.9c-0.5,-0.2 -1,-0.4 -1.6,-0.4c-0.5,0 -0.9,0.1 -1.4,0.3c-0.4,0.2 -0.8,0.4 -1.1,0.8c-0.3,0.4 -0.5,0.7 -0.7,1.2c-0.2,0.5 -0.3,0.9 -0.3,1.4c0,0.5 0.1,1 0.2,1.4c0.1,0.4 0.4,0.8 0.7,1.2c0.3,0.3 0.7,0.6 1.1,0.8c0.4,0.2 0.9,0.3 1.4,0.3c0.6,0 1.2,-0.1 1.6,-0.4c0.4,-0.2 0.9,-0.6 1.3,-1l1.2,1.2c-0.3,0.3 -0.5,0.5 -0.8,0.8c-0.3,0.3 -0.6,0.4 -0.9,0.6c-0.3,0.2 -0.7,0.3 -1.1,0.4c-0.4,0 -0.8,0.1 -1.3,0.1Z" style="fill:#fff;fill-rule:nonzero;"/><path d="M111.3,94.8l1.7,0l4.5,10.4l-1.9,0l-1.1,-2.5l-4.9,0l-1.1,2.5l-1.9,0l4.7,-10.4Zm2.6,6.3l-1.8,-4.1l-1.8,4.1l3.6,0Z" style="fill:#fff;fill-rule:nonzero;"/><path d="M119.3,94.9l1.7,0l5.5,7.1l0,-7.1l1.8,0l0,10.3l-1.5,0l-5.7,-7.3l0,7.3l-1.8,0l0,-10.3Z" style="fill:#fff;fill-rule:nonzero;"/><path d="M135.8,105.4c-0.8,0 -1.4,-0.1 -2.1,-0.4c-0.6,-0.3 -1.2,-0.6 -1.7,-1.1c-0.5,-0.5 -0.8,-1 -1.1,-1.7c-0.3,-0.6 -0.4,-1.3 -0.4,-2.1c0,-0.7 0.1,-1.4 0.4,-2.1c0.3,-0.6 0.6,-1.2 1.1,-1.7c0.5,-0.5 1,-0.9 1.7,-1.1c0.7,-0.2 1.4,-0.4 2.1,-0.4c0.5,0 0.9,0 1.3,0.1c0.4,0.1 0.8,0.2 1.1,0.3c0.3,0.1 0.6,0.3 0.9,0.5c0.3,0.2 0.5,0.4 0.8,0.6l-1.2,1.3c-0.4,-0.4 -0.9,-0.7 -1.3,-0.9c-0.5,-0.2 -1,-0.4 -1.6,-0.4c-0.5,0 -0.9,0.1 -1.4,0.3c-0.4,0.2 -0.8,0.4 -1.1,0.8c-0.3,0.4 -0.5,0.7 -0.7,1.2c-0.2,0.4 -0.3,0.9 -0.3,1.4c0,0.5 0.1,1 0.2,1.4c0.1,0.4 0.4,0.8 0.7,1.2c0.3,0.3 0.7,0.6 1.1,0.8c0.4,0.2 0.9,0.3 1.4,0.3c0.6,0 1.2,-0.1 1.6,-0.4c0.4,-0.2 0.9,-0.6 1.3,-1l1.2,1.2c-0.3,0.3 -0.5,0.5 -0.8,0.8c-0.3,0.2 -0.6,0.4 -0.9,0.6c-0.3,0.2 -0.7,0.3 -1.1,0.4c-0.3,0 -0.8,0.1 -1.2,0.1Z" style="fill:#fff;fill-rule:nonzero;"/><path d="M146.1,105.4c-0.7,0 -1.3,-0.1 -1.8,-0.3c-0.5,-0.2 -1,-0.5 -1.4,-0.9c-0.4,-0.4 -0.7,-0.9 -0.9,-1.4c-0.2,-0.6 -0.3,-1.2 -0.3,-2l0,-5.9l1.8,-0l0,5.9c0,1 0.2,1.7 0.7,2.2c0.5,0.5 1.1,0.7 1.9,0.7c0.8,-0 1.4,-0.2 1.9,-0.7c0.5,-0.5 0.7,-1.2 0.7,-2.1l0,-5.9l1.8,-0l0,5.9c0,0.8 -0.1,1.4 -0.3,2c-0.2,0.6 -0.5,1.1 -0.9,1.4c-0.4,0.3 -0.9,0.7 -1.4,0.9c-0.5,0.1 -1.1,0.2 -1.8,0.2Z" style="fill:#fff;fill-rule:nonzero;"/><path d="M153,94.9l1.7,0l5.5,7.1l0,-7.1l1.8,0l0,10.3l-1.5,0l-5.7,-7.3l0,7.3l-1.8,0l0,-10.3Z" style="fill:#fff;fill-rule:nonzero;"/></g></g></g></svg>